<svg width="27" height="25" viewBox="0 0 27 25" fill="none" xmlns="http://www.w3.org/2000/svg">
<path d="M25.1667 21.25C25.5384 21.2505 25.8959 21.3928 26.1662 21.6479C26.4364 21.9031 26.5991 22.2518 26.6209 22.6229C26.6427 22.994 26.5219 23.3593 26.2834 23.6444C26.0448 23.9294 25.7064 24.1126 25.3373 24.1565L25.1667 24.1667H1.83333C1.46163 24.1663 1.10412 24.024 0.833838 23.7688C0.563556 23.5136 0.400907 23.1649 0.379124 22.7938C0.357341 22.4228 0.478067 22.0574 0.716636 21.7724C0.955205 21.4873 1.29361 21.3042 1.66271 21.2603L1.83333 21.25H25.1667ZM25.1667 11.0417C25.5534 11.0417 25.9244 11.1954 26.1979 11.4688C26.4714 11.7423 26.625 12.1133 26.625 12.5C26.625 12.8868 26.4714 13.2577 26.1979 13.5312C25.9244 13.8047 25.5534 13.9584 25.1667 13.9584H1.83333C1.44656 13.9584 1.07563 13.8047 0.802136 13.5312C0.528645 13.2577 0.375 12.8868 0.375 12.5C0.375 12.1133 0.528645 11.7423 0.802136 11.4688C1.07563 11.1954 1.44656 11.0417 1.83333 11.0417H25.1667ZM25.1667 0.833374C25.5534 0.833374 25.9244 0.98702 26.1979 1.26051C26.4714 1.534 26.625 1.90493 26.625 2.29171C26.625 2.67848 26.4714 3.04941 26.1979 3.3229C25.9244 3.5964 25.5534 3.75004 25.1667 3.75004H1.83333C1.44656 3.75004 1.07563 3.5964 0.802136 3.3229C0.528645 3.04941 0.375 2.67848 0.375 2.29171C0.375 1.90493 0.528645 1.534 0.802136 1.26051C1.07563 0.98702 1.44656 0.833374 1.83333 0.833374H25.1667Z" fill="#271333"/>
</svg>
