<svg width="31" height="31" viewBox="0 0 31 31" fill="none" xmlns="http://www.w3.org/2000/svg">
<path fill-rule="evenodd" clip-rule="evenodd" d="M0.963847 0.963836C1.48736 0.440479 2.1973 0.146473 2.93756 0.146473C3.6778 0.146473 4.38775 0.440479 4.91126 0.963836L15.5001 11.5526L26.0889 0.963836C26.3464 0.697203 26.6544 0.484527 26.995 0.338219C27.3356 0.19191 27.7019 0.114899 28.0726 0.111678C28.4433 0.108457 28.8109 0.17909 29.154 0.319457C29.4971 0.459825 29.8088 0.667115 30.0709 0.929232C30.333 1.19135 30.5403 1.50304 30.6806 1.84613C30.821 2.18922 30.8916 2.55682 30.8884 2.9275C30.8852 3.29817 30.8082 3.66449 30.6619 4.00509C30.5156 4.34568 30.3029 4.65373 30.0363 4.91125L19.4475 15.5L30.0363 26.0888C30.5448 26.6154 30.8262 27.3205 30.8198 28.0525C30.8135 28.7845 30.5199 29.4846 30.0023 30.0022C29.4847 30.5198 28.7845 30.8134 28.0525 30.8198C27.3205 30.8262 26.6154 30.5448 26.0889 30.0363L15.5001 19.4475L4.91126 30.0363C4.38475 30.5448 3.67957 30.8262 2.9476 30.8198C2.21564 30.8134 1.51545 30.5198 0.997853 30.0022C0.480255 29.4846 0.186658 28.7845 0.180297 28.0525C0.173937 27.3205 0.455322 26.6154 0.963847 26.0888L11.5526 15.5L0.963847 4.91125C0.44049 4.38774 0.146484 3.67779 0.146484 2.93754C0.146484 2.19729 0.44049 1.48735 0.963847 0.963836Z" fill="#ffffff"/>
</svg>
