<svg width="1680" height="1095" viewBox="0 0 1680 1095" fill="none" xmlns="http://www.w3.org/2000/svg">
<path d="M-29.0407 264.035C89.1046 140.893 440.422 -57.0527 563.704 29.0473C717.806 136.672 -325.138 510.939 -86.2789 596.965C152.58 682.991 658.917 78.9496 881.815 122.149C1104.71 165.348 150.929 602.551 171.843 746.299C192.757 890.048 644.826 629.327 793.206 513.919C947.859 393.632 1115.17 154.548 1290.19 211.898C1465.2 269.249 733.767 699.004 494.908 904.199C418.178 970.115 473.994 1209.2 993.54 857.648C1409.18 576.408 1671.96 386.432 1751.39 326.599C1881.92 228.284 2204.43 283.189 1751.39 684.48C1290.19 1093.01 998.31 1150.36 966.572 1166" stroke="white" stroke-opacity="0.2" stroke-width="15" stroke-linecap="round"/>
</svg>
