<svg width="198" height="204" viewBox="0 0 198 204" fill="none" xmlns="http://www.w3.org/2000/svg">
<path d="M61.2556 80.6014C62.7681 94.3081 65.2905 117.354 80.0174 124.084C89.5912 128.461 99.4432 120.841 105.364 113.923C121.549 95.0128 129.14 55.8618 99.6751 45.0976C80.4823 38.0891 57.8077 50.6841 51.9825 69.6044C45.8556 89.5207 55.4608 112.538 66.7183 128.727C75.8343 141.837 89.4147 153.991 106.234 154.214C117.625 154.362 126.539 146.78 131.787 137.256C144.311 114.566 141.117 80.8862 125.152 60.6944C109.314 40.6616 73.2717 37.1667 57.9759 59.5674C44.1799 79.7646 48.9539 111.198 62.3323 130.311C68.628 139.305 77.9863 146.033 89.1759 146.671C101.868 147.401 115.634 140.108 121.386 128.696C133.365 104.928 111.362 74.3159 88.2638 68.0575C63.5489 61.3763 30.5416 86.5463 40.4682 113.111C48.8409 135.5 77.213 150.403 100.025 151.313C110.725 151.749 121.425 148.198 127.705 139.12C134.536 129.243 135.152 114.892 129.2 104.539C117.741 84.5841 85.2684 78.7879 65.464 87.8898C35.3023 101.76 67.5176 137.654 83.2535 148.541C92.2734 154.79 103.67 158.377 114.248 154.077C123.082 150.485 128.82 141.82 131.433 132.974C134.28 123.353 133.41 112.619 128.799 103.692C123.333 93.1103 112.59 87.1445 101.158 85.2252C87.5817 82.9383 69.9306 84.2225 58.9008 93.338C50.557 100.234 49.3201 111.362 51.9145 121.276C57.5846 142.927 80.8428 164.697 104.344 161.561C118.292 159.692 128.452 147.776 133.768 135.547C139.488 122.38 137.725 107.725 130.641 95.485C117.382 72.6093 84.7128 56.4716 58.9379 66.5837C47.4516 71.091 37.6427 81.0059 34.5968 93.1439C32.0161 103.436 35.39 114.056 40.6857 122.895C53.219 143.779 77.497 159.214 101.067 164.179C111.111 166.295 122.137 166.32 131.402 161.435C141.096 156.331 145.821 146.138 147.432 135.726C152.351 103.887 128.971 80.2139 100.58 70.6473C82.1124 64.4357 44.8661 61.5023 42.1061 88.6936C40.4938 104.474 53.3441 118.152 64.8773 126.961C78.8971 137.664 97.4254 145.626 115.331 144.875C133.577 144.107 148.429 129.021 146.377 110.493C144.187 90.8232 127.261 76.5548 109.51 70.8557C95.0647 66.2114 72.359 62.8235 60.9488 75.6762C49.9879 88.0207 57.6823 104.54 66.7999 115.208C84.8132 136.302 121.748 154.886 146.179 132.904C165.166 115.822 161.846 83.0445 148.523 63.7469C141.441 53.4941 130.642 46.5585 118.172 45.3181C103.355 43.8499 86.7497 50.7663 76.0754 60.8352C56.4859 79.3311 66.2798 108.151 82.314 125.276C95.1655 138.995 121.508 151.337 131.879 128.089C137.654 115.14 138.049 98.5478 131.468 85.8427C125.835 74.9686 114.753 68.2156 103.007 65.8254C82.0327 61.5525 54.9655 72.696 58.772 97.7957C61.1178 113.272 73.415 128.554 85.3909 137.94C94.874 145.363 106.908 149.196 118.832 146.567C138.981 142.133 153.159 119.877 148.378 99.8108C145.541 87.9044 135.912 79.4572 125.168 74.5115C117.076 70.7849 108.111 68.8746 99.3094 67.7523C91.9438 66.8097 83.9874 66.8426 77.0897 69.8942C66.8597 74.4197 65.8241 85.7706 69.1654 95.2124C73.3934 107.178 83.4342 117.28 94.7785 122.636C117.5 133.371 148.775 116.978 146.068 90.1982C144.198 71.6449 125.706 47.9222 105.181 49.9198C94.0594 51.0074 88.1312 61.4937 85.3391 71.1984C80.0444 89.6083 85.8105 107.53 96.98 122.591C107.942 137.362 127.174 148.852 144.9 138.369C161.498 128.551 161.175 105.244 156.19 89.1301C147.475 60.9595 113.639 39.5017 86.3167 57.1588C76.3671 63.5947 70.1629 74.682 70.2837 86.5577C70.4426 102.606 82.2288 115.72 94.3779 124.756C104.357 132.182 118.236 140.426 131.294 138.086C139.6 136.589 144.721 129.563 146.853 121.859C151.868 103.754 144.534 79.6661 129.771 67.9592C109.423 51.8224 82.4401 73.9445 73.8129 92.9423C62.829 117.105 85.5349 139.769 106.701 147.308C117.594 151.185 130.154 151.862 140.697 146.572C152.589 140.59 158.23 127.198 159.286 114.538C161.772 84.7941 133.101 61.7062 106.138 57.3508C93.8423 55.3578 80.4151 57.7201 71.5737 67.0555C62.8903 76.2241 60.7629 89.9826 64.9253 101.633C69.3123 113.915 79.285 123.755 89.596 131.281C100.205 139.018 112.943 145.226 126.009 147.291C135.066 148.719 145.999 148.299 151.87 140.171C159.672 129.394 153.499 111.752 147.458 101.828C139.305 88.4181 124.256 80.8928 108.727 81.33C95.4195 81.7017 82.1869 88.6063 76.5599 101.023C69.1294 117.443 79.6529 136.631 89.4697 149.511C97.5994 160.162 109.833 168.566 123.746 166.015C147.607 161.645 160.061 130.236 150.622 109.417C145.412 97.9461 133.053 89.2492 120.407 88.989C108.119 88.7433 96.7488 96.2791 88.9446 105.204C81.6254 113.591 76.1832 125.043 77.6873 136.385C79.364 148.974 91.3317 155.418 102.805 157.202C116.686 159.366 130.398 154.513 134.667 140.155C138.52 127.214 133.154 112.448 124.075 103.026C112.322 90.8217 94.5437 89.8661 79.4068 95.6569C68.7658 99.7223 58.2861 107.863 62.4546 120.469C66.1787 131.704 78.0307 139.55 88.3649 143.942C99.3444 148.596 113.142 150.239 123.361 142.959C129.455 138.616 133.4 130.912 132.624 123.415C131.848 115.918 126.343 109.807 120.543 105.514C108.229 96.4009 86.4992 92.0066 75.9278 105.946C75.7512 106.174 75.8217 106.517 76.002 106.72C80.7405 112.303 89.6584 115.299 96.0454 110.388C101.664 106.064 103.582 97.3827 99.0243 91.5589C91.8922 82.4454 72.2396 82.6266 77.4086 97.9108C80.9845 108.484 101.444 112.641 108.191 103.128C111.829 97.988 104.227 91.7525 100.24 90.1151C92.2115 86.7972 88.19 96.1295 89.1772 102.442C89.3922 103.46 89.6874 104.436 90.0798 105.4C90.3571 106.169 91.5969 105.887 91.3234 105.106C88.7028 97.6272 92.5822 87.1243 101.973 92.3716C106.336 94.8073 110.252 100.799 105.125 104.387C98.5112 109.028 87.1047 107.157 81.4647 101.891C78.2317 98.8715 76.4421 93.081 78.9222 89.1476C81.2849 85.38 87.1513 86.0429 90.6811 87.1524C102.603 90.9114 103.649 108.329 90.5648 111.332C87.435 112.049 84.1716 111.168 81.397 109.737C78.4123 108.202 76.5765 106.773 79.0948 104.22C81.9252 101.346 85.7538 99.7406 89.6444 98.9057C97.6594 97.1724 106.352 99.3625 113.577 102.853C128.228 109.922 138.218 126.573 124.749 140.104C114.31 150.593 96.8339 146.869 85.0466 141.071C74.9072 136.08 60.6958 125.211 62.9011 112.214C64.0952 105.126 70.9249 100.792 76.937 98.0498C86.369 93.7658 97.2375 92.0513 107.36 94.6611C123.479 98.8325 134.212 115.024 134.505 131.206C134.643 138.416 132.221 145.615 126.921 150.614C120.303 156.865 110.387 157.297 101.909 155.816C87.8611 153.36 77.1538 143.995 78.8686 128.984C80.3768 115.763 89.969 103.595 100.803 96.5004C113.213 88.3668 127.417 88.5352 139.28 97.4978C162.486 115.051 153.004 155.616 126.116 164.129C109.558 169.382 95.4028 156.557 86.8813 143.788C76.6049 128.393 68.9618 106.963 84.338 92.1841C96.3057 80.6816 115.926 80.2086 130.13 87.4239C145.541 95.2603 156.496 115.33 153.504 132.653C151.412 144.744 139.386 147.531 128.842 146.444C114.937 145.024 101.465 138.272 90.2337 130.239C78.9607 122.167 68.283 110.932 64.8376 97.1364C61.3631 83.171 68.4931 67.7868 81.3599 61.4694C94.6961 54.9318 111.318 58.3293 124.157 64.3795C138.276 71.0323 150.642 82.7648 155.818 97.7155C160.783 112.079 157.635 130.535 146.321 141.121C136.599 150.217 122.107 150.512 109.97 147.063C84.6806 139.886 61.1211 112.508 78.6857 86.9149C86.3038 75.8129 99.5083 63.7722 113.755 63.5777C124.419 63.4253 132.885 71.104 138.205 79.6418C146.948 93.673 154.209 124.786 136.03 135.078C124.459 141.64 109.267 133.078 99.598 126.888C84.8526 117.428 70.4433 102.338 71.5948 83.5588C72.4402 69.7342 82.9281 58.5082 95.6028 54.0655C111.096 48.651 127.438 54.4336 139.172 65.0619C154.499 78.9397 162.303 102.673 155.614 122.674C151.853 133.938 141.435 141.386 129.588 141.368C118.306 141.347 108.373 133.814 101.17 125.82C93.5854 117.402 88.1184 106.779 85.4617 95.7863C83.2309 86.5333 84.5495 77.0399 87.6114 68.1283C91.5661 56.6683 100.808 48.7564 113.272 51.968C134.638 57.4737 152.872 87.2792 141.305 107.829C133.948 120.903 116.495 127.429 102.271 124.046C88.5499 120.776 76.7068 109.578 71.0806 96.8664C68.6882 91.4705 67.5348 85.1747 69.4991 79.4877C71.6965 73.1197 78.1877 70.2134 84.3591 69.1163C94.4366 67.3098 105.445 69.6107 115.147 72.3216C122.871 74.4734 130.324 77.9657 136.414 83.2066C155.568 99.6934 148.759 129.215 128.474 141.366C99.9862 158.442 67.7892 127.185 60.6135 100.756C57.1604 88.0054 62.7387 76.3258 74.3653 70.4247C85.5828 64.7218 99.618 65.094 111.123 69.653C125.143 75.2153 133.63 88.0547 134.722 102.882C135.638 115.281 132.601 134.214 119.148 139.186C108.492 143.126 96.5608 136.25 88.6074 129.626C78.6282 121.314 70.8468 109.735 67.5644 97.1302C64.0408 83.5928 67.724 70.1042 78.1271 60.6647C90.1522 49.7701 109.188 43.6034 125.077 47.9599C152.481 55.469 163.469 91.4691 155.252 116.202C150.746 129.79 139.578 138.877 125.471 140.913C107.757 143.467 91.5285 135.182 78.0675 124.406C64.7514 113.728 48.9659 94.275 61.2534 77.2853C67.1408 69.149 79.0634 68.0759 88.2161 68.392C98.4183 68.7441 108.793 71.3633 118.062 75.5938C138.497 84.9251 155.751 114.554 137.522 133.744C122.649 149.387 98.7984 143.84 81.6315 135.727C65.4526 128.075 47.2095 114.253 43.59 95.6264C40.9512 82.0484 50.1371 72.2401 62.619 69.0545C76.6105 65.494 92.1604 68.6204 105.316 73.8002C120.063 79.6228 133.742 89.7666 141.338 103.907C148.36 116.974 148.888 134.906 142.288 148.276C137.165 158.63 126.757 163.652 115.593 164.217C90.4606 165.516 63.8991 149.511 48.0581 130.994C40.4737 122.133 34.4989 110.927 34.9775 98.9774C35.5379 85.4288 45.9534 73.644 57.9303 68.3591C86.1601 55.9033 123.328 77.0414 133.397 104.468C139.264 120.46 134.124 138.004 122.7 150.194C112.905 160.637 99.0057 162.964 85.9235 157.806C73.5357 152.926 63.2866 142.493 57.0655 130.903C51.5814 120.692 49.0354 107.383 56.5739 97.5192C66.2696 84.8317 88.2688 84.1264 102.46 86.7742C115.05 89.1248 125.591 97.1769 129.799 109.432C136.54 129.098 124.68 157.439 100.793 154.539C84.0907 152.513 69.5465 136.805 60.7627 123.661C53.6703 113.043 50.5333 98.9378 62.7256 90.859C73.1257 83.9555 87.7592 84.2136 99.4578 86.8043C112.023 89.5904 124.761 96.6838 129.918 109.038C135.07 121.364 130.591 138.236 119.251 145.539C108.581 152.401 94.2561 150.505 82.8409 146.846C61.884 140.122 29.1938 116.608 42.7266 90.8547C50.6494 75.7779 69.3739 65.5436 86.2066 68.9108C100.8 71.8279 112.57 83.6216 118.775 96.6825C124.889 109.555 125.138 125.617 114.294 136.024C104.036 145.87 87.5681 148.345 75.3183 141.104C52.9919 127.911 46.5053 92.7376 54.3114 69.7595C58.6448 57.0048 68.6937 47.9815 82.0978 45.9612C97.7645 43.606 114.121 49.2989 124.152 61.5592C141.199 82.3876 143.599 120.994 126.683 142.582C117.51 154.3 103.147 154.876 90.3854 148.97C80.6496 144.464 73.0257 135.644 67.012 127.004C60.258 117.307 55.3632 106.213 52.858 94.6754C50.4319 83.4974 50.9637 71.4167 56.93 61.4251C63.5909 50.2479 77.3766 44.531 89.9751 44.6828C110.343 44.9329 120.071 63.2894 118.103 81.3514C116.425 96.8165 107.211 116.026 92.2548 122.636C69.799 132.559 63.9166 93.6627 62.45 80.2921C62.3623 79.4736 61.115 79.7803 61.2064 80.5865L61.2556 80.6014Z" fill="#55324C"/>
<path d="M63.3715 134.071C78.3099 143.16 93.5247 151.957 110.124 157.334C125.158 162.21 142.951 164.311 157.286 153.767C173.576 141.776 175.303 118.352 171.489 100.055C167.609 81.4032 154.523 68.9022 140.042 59.7641C113.762 43.1857 68.3005 31.5222 44.6876 63.6991C26.1506 88.9569 40.5771 123.354 57.5559 142.014C66.7809 152.151 78.4007 159.389 91.7117 161.354C105.407 163.382 119.992 160.565 133.154 154.954C145.485 149.696 157.902 140.92 165.176 128.385C172.95 114.995 173.095 99.9379 168.008 86.1552C162.412 70.9967 148.34 61.7944 134.982 56.0837C118.841 49.1942 100.879 46.5855 83.2463 47.0565C67.965 47.4746 52.3688 50.6162 38.9759 59.9554C28.8486 67.0221 21.232 78.0306 23.088 91.2239C24.9272 104.251 34.2718 114.746 43.0561 122.615C53.9824 132.408 66.9699 139.873 80.5764 144.585C94.302 149.347 107.794 149.34 122.007 143.94C137.358 138.107 151.988 124.994 157.249 107.715C162.921 89.1243 156.676 71.5412 145.012 58.7327C135.536 48.3184 123.092 42.7369 109.966 39.3647C96.3119 35.873 81.6594 34.9246 67.4822 37.5027C55.9618 39.5969 43.7982 44.7448 36.54 55.6336C28.8333 67.2054 29.7817 82.9963 33.8774 95.1767C38.6678 109.407 49.4609 120.26 60.9563 127.997C82.7385 142.676 117.056 151.38 141.064 133.095C152.738 124.202 158.311 108.95 158.934 94.2657C159.571 79.2235 152.198 66.5606 141.399 58.5643C119.605 42.4187 83.3653 42.0991 61.1989 61.6132C50.3279 71.1795 44.7951 86.5642 45.0552 101.126C45.3242 115.571 52.431 128.18 61.9777 137.166C81.7634 155.777 114.921 161.042 138.217 142.716C149.569 133.779 158.403 118.307 159.24 103.271C160.063 88.6343 153.905 75.8159 145.082 65.8143C126.698 44.97 93.8494 32.7915 66.8849 43.2413C55.2078 47.7579 45.2675 58.0625 41.2843 70.9904C37.198 84.3032 39.2146 98.1626 43.7075 110.45C53.4543 137.121 75.8816 160.881 101.628 168.412C112.788 171.671 125.018 170.826 135.401 163.756C146.91 155.94 155.151 141.228 158.04 127.217C163.887 98.7862 147.383 71.4241 126.306 58.1401C115.746 51.4783 103.098 48.2108 90.5451 50.4352C76.8877 52.8486 65.3631 62.4451 57.1405 74.6123C40.6878 98.9713 48.0359 130.902 60.5782 153.44C72.5989 175.041 95.6269 196.42 121.254 187.283C136.692 181.785 146.145 167.373 151.041 151.164C156.759 132.198 157.399 110.056 149.898 92.4549C135.37 58.3489 88.294 57.0689 61.406 78.5219C40.4591 95.2509 38.0582 126.618 48.505 149.206C60.5325 175.172 86.9561 187.511 113.511 177.085C140.094 166.654 149.843 135.002 145.851 107.632C143.771 93.3638 138.046 79.871 129.263 69.4253C119.435 57.7366 106.536 52.4602 92 50.7282C77.6313 49.0201 61.7977 51.2172 49.7159 61.6785C40.2414 69.8691 35.3488 82.3873 34.5424 94.9755C32.4193 128.306 57.3089 155.725 84.5115 164.341C100.628 169.451 118.345 168.925 133.165 157.709C145.501 148.359 152.912 132.845 155 117.222C159.938 80.4488 133.498 49.5533 100.931 47.2994C74.5867 45.4669 44.7939 64.4561 37.6938 94.0106C29.5483 127.946 60.2218 154.661 87.1801 159.874C113.86 165.03 143.377 150.319 156.798 123.029C163.693 108.996 164.877 92.992 161.827 78.2021C158.575 62.4383 150.456 49.67 139.607 39.3098C128.262 28.4635 114.422 20.4456 99.8148 15.7123C87.324 11.6602 73.2455 10.0131 60.2596 14.8179C31.7211 25.3681 29.1503 66.4692 39.5186 90.7781C51.0388 117.798 76.518 137.288 102.494 145.345C124.104 152.039 151.863 149.292 161.506 122.066C172.956 89.7614 156.984 57.0974 131.53 42.6216C109.635 30.1771 74.9653 29.0176 59.2115 56.1655C43.8804 82.5824 51.5916 116.771 70.1717 136.171C86.6094 153.339 112.288 162.111 135.622 156.292C145.696 153.787 155.138 147.962 161.649 138.834C169.317 128.096 171.26 114.282 170.561 101.479C168.842 70.2866 151.232 44.6701 123.043 38.1581C100.412 32.9271 73.3659 42.7615 64.2547 68.8074C59.4412 82.571 60.0085 99.5754 65.5498 112.301C71.2391 125.38 82.3055 134.8 93.9029 141.226C105.628 147.717 119.246 151.506 132.783 150.775C142.839 150.237 153.815 146.26 159.186 135.886C162.971 128.576 162.509 119.819 161.039 112.219C160.889 111.476 159.853 111.927 160.007 112.658C162.745 126.75 159.349 140.754 145.773 146.709C132.94 152.339 117.831 149.574 105.615 145.19C91.7866 140.236 78.6701 131.336 70.1896 118.431C61.73 105.547 60.1805 87.2649 64.5426 71.5792C72.9738 41.2199 105.615 32.946 129.411 41.2415C158.439 51.3635 174.387 85.6579 168.599 118.858C163.62 147.391 137.828 158.934 114.245 156.448C88.5549 153.74 64.2331 136.279 55.5508 109.594C50.5103 94.1076 51.0369 75.2198 58.409 59.9225C65.5819 45.0614 79.713 37.1404 94.2468 35.5562C125.802 32.1078 158.232 55.7706 163.267 90.021C165.475 105.066 163.007 123.581 152.639 135.474C143.717 145.697 130.255 148.13 118.364 147.239C89.6289 145.099 61.4489 125.529 45.8066 100.374C37.1859 86.5143 33.6893 70.7166 35.5711 53.5146C37.3987 36.8464 45.4749 21.8832 60.6036 15.9422C74.9846 10.2983 91.1235 13.5628 104.595 18.677C119.389 24.2993 133.12 33.519 144.042 45.5393C165.683 69.3701 169.467 109.389 146.629 136.66C123.948 163.723 86.9035 165.75 61.4501 147.194C48.0578 137.433 37.1595 122.185 37.5432 103.415C37.8649 87.5522 46.9516 72.9756 58.3695 63.1991C87.1129 38.59 129.017 46.2633 146.925 78.2521C164.517 109.689 149.672 158.119 113.159 165.529C93.8373 169.448 73.4842 161.041 59.0398 148.504C47.2189 138.252 38.6156 123.404 36.1512 106.725C34.0772 92.7003 37.1608 77.5133 46.5001 66.4897C58.1292 52.7369 76.2522 50.2936 91.7766 51.9089C107.909 53.6009 121.523 60.5033 131.478 74.1231C140.132 85.9663 144.845 101.206 145.637 116.627C146.402 131.517 142.946 147.222 134.174 159.519C124.593 172.938 109.179 179.464 94.3745 179.772C65.9635 180.374 44.9601 153.286 43.4925 123.7C42.7883 109.541 47.2072 95.1742 56.6192 84.5753C69.1723 70.4313 89.4413 65.2017 106.271 65.6552C127.106 66.2215 145.106 78.4527 151.474 100.194C157.257 119.919 154.254 144.768 145.052 163.713C137.569 179.111 122.289 189.14 106.747 188.204C93.4226 187.39 81.8321 178.858 72.9843 168.984C55.1757 149.119 41.3019 114.137 52.5443 85.3544C58.3859 70.4123 71.3709 57.6339 85.4651 52.9367C98.8143 48.4836 112.868 51.7204 124.448 58.423C148.299 72.2116 165.231 104.187 154.894 134.721C149.936 149.407 138.918 163.224 124.892 167.606C111.64 171.74 97.7579 167.051 86.4932 160.458C62.7119 146.529 40.3984 117.475 40.134 86.1322C40.0046 71.0055 47.2054 56.7167 59.3083 48.49C72.3284 39.6284 88.6633 39.5428 102.648 42.6515C129.603 48.6286 163.067 72.7789 157.632 107.737C154.922 125.145 142.612 140.705 127.91 147.849C113.779 154.709 97.6414 154.009 83.7637 149.04C70.218 144.172 57.9821 134.492 51.0663 120.854C43.7637 106.453 44.837 87.9326 53.0959 73.2529C61.3894 58.5031 77.4564 51.3698 92.141 49.0662C107.602 46.6355 123.892 49.3147 137.209 57.2414C150.687 65.2571 159.099 79.8055 157.652 97.3003C156.242 114.363 147.627 129.553 132.91 136.84C118.922 143.757 102.758 142.834 88.6775 139.2C73.3525 135.242 58.8091 127.065 47.6322 115.263C36.9657 103.992 30.2863 88.0217 32.2095 70.9932C33.9183 55.9133 44.8158 46.1269 57.3904 41.4391C71.5058 36.1845 87.0583 36.466 101.229 38.7852C114.195 40.9141 127.858 45.1737 138.161 53.8786C153.807 67.1014 163.524 88.1526 155.145 110.407C147.437 130.891 127.631 143.013 108.741 146.391C94.5504 148.925 80.7753 144.283 68.3244 138.149C54.9506 131.561 42.1194 122.251 32.7885 109.894C25.2047 99.8786 20.329 86.2404 27.4593 73.5141C35.879 58.4804 54.1111 52.0433 68.7271 49.6115C87.0486 46.5572 105.985 48.253 123.444 53.2732C139.544 57.9084 156.518 66.5266 165.137 82.5607C172.867 96.9694 172.24 115.612 162.887 129.96C154.158 143.357 139.84 151.718 125.978 156.445C111.814 161.282 95.9535 162.639 82.1567 157.802C68.3476 152.961 56.9851 141.506 48.9287 128.797C40.8379 116.024 35.4855 99.8384 37.7806 83.6206C40.2764 65.9871 53.6331 52.2475 68.9683 47.3087C88.1989 41.1203 109.599 46.3812 126.988 54.1588C143.584 61.5885 161.758 74.0871 168.409 93.1626C175.702 114.11 173.537 143.589 152.402 155.577C135.109 165.386 113.891 158.327 97.7923 151.384C85.9958 146.28 74.8652 139.687 63.8371 132.977C63.2376 132.608 62.756 133.71 63.3432 134.076L63.3715 134.071Z" fill="#55324C"/>
<path d="M71.3357 89.537C63.4044 90.3292 57.2657 93.9329 53.4592 101.048C50.2823 106.972 49.352 113.898 50.7114 120.445C53.4496 133.65 65.2024 143.64 75.8479 150.771C96.7128 164.755 125.989 175.476 147.594 156.973C160.755 145.698 166.076 127.511 168.362 110.968C170.815 93.0797 169.639 73.609 158.697 58.5494C141.696 35.131 103.984 31.0766 78.9216 42.116C32.1771 62.6952 36.5502 133.162 72.2304 161.782C81.9893 169.624 94.0637 173.899 106.499 174.767C123.287 175.933 136.464 166.287 145.011 152.473C154.904 136.476 159.272 114.966 157.172 96.3298C155.014 77.2196 146.49 59.4963 132.95 45.8374C112.294 25.003 78.5635 16.7991 54.0932 36.0314C33.4331 52.2567 27.5188 81.9287 29.3719 106.786C31.2624 131.963 42.0392 158.557 65.308 170.853C85.3145 181.424 108.548 182.005 125.955 166.284C142.715 151.146 149.761 126.998 150.745 105.095C151.817 81.2175 145.157 56.099 128.816 38.169C120.857 29.4359 109.674 21.3772 97.7328 19.7198C84.6614 17.8945 72.7309 25.5962 64.2479 34.812C53.4844 46.5048 46.7349 61.8297 42.8894 77.0947C38.8898 92.9572 37.9282 110.666 43.25 126.332C53.4542 156.323 88.0689 178.446 119.519 169.717C135.683 165.231 147.089 152.216 154.579 137.814C162.783 122.03 167.026 103.503 165.982 85.7232C165.049 69.8832 158.599 56.4795 144.09 49.1181C128.181 41.0639 108.495 40.9129 91.2535 43.5025C74.3805 46.0291 58.0947 52.5994 46.2643 65.2443C37.1696 74.9728 33.0266 87.8523 34.5123 101.027C37.4944 127.475 61.501 150.586 87.0495 155.667C114.302 161.104 141.601 140.822 143.542 112.966C145.423 85.8848 126.008 58.782 104.016 44.8852C94.2588 38.7215 82.4017 34.6599 70.8168 36.9226C60.4728 38.9437 50.6992 46.7484 45.0674 55.4587C33.1649 73.8805 39.7662 97.9073 49.5984 115.611C60.5903 135.424 78.5094 153.55 100.049 161.497C109.25 164.889 119.397 165.909 128.847 162.986C139.259 159.764 147.162 151.755 152.734 142.664C159.57 131.486 163.569 118.416 162.194 105.274C161.003 93.9197 155.564 83.5605 148.107 75.0736C120.054 43.166 49.9186 28.9412 32.5533 78.957C24.9457 100.881 34.1184 124.573 47.6106 142.069C61.2929 159.825 81.9116 174.755 104.539 177.824C114.465 179.18 124.652 177.541 133.318 172.421C143.371 166.486 149.945 156.303 154.195 145.684C165.469 117.461 165.306 84.1895 145.228 59.9863C128.668 40.0304 101.663 30.7628 76.2473 34.0172C52.7789 37.0024 28.323 51.7557 23.7915 76.464C19.7385 98.485 31.608 120.94 46.1239 136.653C60.5858 152.322 82.3764 165.688 104.5 163.154C128.722 160.384 146.279 137.474 150.041 114.465C153.85 91.1222 142.524 68.0265 126.491 51.6932C112.327 37.255 91.2221 24.8618 70.2689 27.8303C46.7491 31.1624 37.4575 56.1201 36.6017 77.0692C35.5805 101.888 47.1019 125.714 64.0429 143.302C79.0882 158.907 100.273 171.391 122.464 171.428C145.057 171.466 160.673 155.539 167.311 134.999C175.856 108.607 171.874 80.3667 152.431 59.9133C136.266 42.9091 111.035 33.4137 87.8564 39.2519C61.611 45.8658 46.1377 73.0181 44.6122 98.7041C41.6965 147.768 102.551 183.813 145.638 163.522C166.992 153.467 179.754 127.023 173.76 104.093C167.863 81.5544 145.421 66.9711 123.826 62.1748C101.312 57.1804 76.2757 62.9927 62.9613 82.9734C48.9404 104.002 51.3669 132.549 67.889 151.299C82.3341 167.689 106.108 176.501 127.703 172.921C137.554 171.288 147.04 166.47 153.458 158.709C161.461 149.039 164.164 136.569 164.109 124.257C164.005 99.1647 143.468 82.0577 120.677 76.2948C97.2959 70.3936 69.5485 75.4518 53.3762 94.3655C37.9753 112.372 35.4518 142.239 51.0342 160.811C65.4023 177.943 90.5954 182.956 111.791 179.806C135.052 176.356 155.618 161.417 161.838 138.133C165.15 125.74 164.687 111.224 160.081 99.2243C155.763 87.9969 147.182 78.7933 137.494 71.9124C117.924 57.9975 90.1118 51.7474 67.3646 61.1256C42.4395 71.4012 33.423 101.61 37.9746 126.466C46.4906 173.019 110.71 182.714 141.927 153.082C158.976 136.904 162.369 109.085 152.135 88.3207C142.12 67.9848 119.429 53.2051 97.08 50.8111C87.3423 49.7675 77.1943 51.6735 69.4245 57.8703C60.2193 65.2163 57.0564 77.386 56.5304 88.6497C55.8985 102.257 58.2136 116.771 66.9346 127.641C74.1151 136.594 85.0425 141.421 96.1751 143.089C120.053 146.684 147.18 136.23 161.717 116.821C177.426 95.8475 171.707 65.94 152.895 48.8992C135.234 32.8914 108.207 26.839 85.1699 32.0353C74.2206 34.504 63.6725 40.168 56.5602 48.9802C47.97 59.6132 45.0744 73.0719 45.4778 86.4963C46.0013 104.266 51.7323 121.063 63.5029 134.494C74.4135 146.953 90.1614 155.63 106.846 156.429C123.966 157.252 139.56 147.694 149.257 134.027C159.708 119.286 163.033 99.8905 160.765 82.2098C158.724 66.3028 150.952 52.2569 138.002 42.7636C125.359 33.4975 108.648 27.7778 92.9159 29.6837C75.1063 31.846 64.5793 47.1005 60.2858 63.3573C55.6366 81.0097 57.3223 101.279 64.1323 118.147C69.594 131.668 81.9491 141.397 94.5896 147.924C107.577 154.637 123.342 158.338 137.627 153.806C153.621 148.732 163.746 131.879 166.403 116.106C169.333 98.7249 163.224 80.9145 154.527 66.0652C141.297 43.4935 113.171 17.054 84.5223 24.3357C66.5032 28.9179 56.5641 47.9478 52.0706 64.4661C46.7182 84.174 48.7428 106.559 58.7036 124.503C72.0002 148.451 108.588 163.306 133.58 149.708C149.828 140.871 158.046 121.628 159.036 103.915C160.058 85.4724 153.572 65.7624 141.486 51.7788C133.496 42.5264 121.972 37.4112 109.743 38.4318C98.6451 39.3521 88.4584 45.1525 80.1533 52.2745C62.0533 67.7585 49.2794 93.1782 51.9539 117.318C54.6826 141.943 78.725 159.884 102.974 158.974C125.035 158.153 140.956 139.539 147.924 120.079C155.323 99.4208 153.932 74.234 139.262 57.0381C125.301 40.6883 94.204 30.7047 76.7907 47.0679C59.702 63.1133 62.9572 93.2676 70.4388 112.97C79.3757 136.51 100.176 156.113 126.913 149.917C142.952 146.198 153.322 133.191 154.708 117.006C156.153 100.048 145.926 85.554 134.063 74.5106C123.948 65.0975 110.421 55.7786 96.1402 55.3319C83.6776 54.9528 71.9877 61.0629 64.2469 70.6646C48.3481 90.3591 45.2573 122.497 60.8191 143.265C68.5326 153.561 81.7952 159.364 94.255 161.259C104.658 162.853 115.122 161.191 123.974 155.322C141.235 143.892 147.445 120.82 146.058 101.205C144.568 79.9344 133.112 59.5245 112.583 51.6548C87.5315 42.0529 56.6775 52.0493 45.6873 77.1637C35.0723 101.439 43.8173 131.86 63.2537 149.009C79.8114 163.609 106.519 169.471 122.387 150.988C136.451 134.604 137.716 108.933 132.7 88.8901C127.346 67.4826 111.97 48.892 88.6848 47.9057C71.1524 47.1587 54.3132 58.7024 45.5636 73.2738C36.7213 88.0184 36.2531 106.669 44.78 121.547C52.0552 134.221 64.7627 143.319 77.8428 149.281C89.4617 154.572 102.628 157.326 115.244 154.274C138.981 148.539 143.699 121.887 140.618 101.128C137.026 76.8712 123.085 50.4869 100.246 39.4745C89.7176 34.3928 76.7211 33.5164 65.7925 37.9108C55.6597 41.9825 49.4254 50.5103 47.3115 61.0782C44.8971 73.1255 47.5637 85.9469 51.5606 97.3457C56.0644 110.173 63.0545 122.237 71.8864 132.564C79.58 141.552 89.4071 149.656 101.031 152.761C111.909 155.667 125.009 152.347 134.017 145.827C153.943 131.406 150.145 103.799 141.708 83.9677C132.381 62.0278 113.745 38.8252 89.5305 33.0609C55.2119 24.8935 38.1086 65.2704 41.2962 93.5653C43.289 111.27 51.6248 126.292 65.6018 137.358C78.3988 147.49 95.193 153.288 111.552 152.324C124.155 151.578 136.655 146.25 144.416 136.091C151.504 126.828 153.413 114.588 152.409 103.236C150.504 81.652 136.633 56.0541 113.717 51.5016C101.462 49.0645 89.7287 54.6515 80.5887 62.4468C69.9997 71.481 61.4336 83.7187 59.2146 97.6911C55.382 121.953 69.9426 145.317 90.1557 157.776C109.773 169.853 134.631 169.369 149.499 150.288C164.476 131.066 163.868 105.244 153.96 83.934C144.814 64.2771 127.055 46.1994 105.389 41.3278C80.8076 35.8013 62.1024 53.0617 52.2187 73.9474C40.9639 97.7198 42.2357 124.186 58.9811 144.99C72.9659 162.368 95.7279 173.679 118.128 173.377C128.061 173.245 137.886 170.368 145.881 164.401C154.956 157.619 160.164 147.116 162.493 136.238C167.867 111.14 158.41 84.7986 138.152 69.0779C120.335 55.2649 95.0657 51.7446 75.7841 64.6156C64.6147 72.0647 57.3723 83.965 52.8541 96.355C48.1772 109.18 48.0525 120.847 54.2815 133.164C66.2622 156.847 94.1968 175.188 120.36 178.241C131.625 179.559 143.451 177.034 151.316 168.396C160.289 158.537 165.186 146.181 166.292 132.959C168.435 107.272 156.345 79.3408 136.038 63.4711C127.137 56.5197 115.745 52.1161 104.336 53.3579C90.539 54.8567 78.9433 63.492 70.3032 73.9354C59.925 86.4832 53.134 101.192 52.898 117.657C52.6998 131.517 57.4819 145.154 65.3009 156.475C78.1149 175.015 103.929 190.432 125.678 177.167C138.24 169.509 145.677 154.218 148.245 140.203C151.059 124.841 148.118 108.849 142.14 94.5953C132.411 71.366 108.023 42.9579 79.6836 49.8369C67.7303 52.7396 55.4728 61.255 49.0044 71.7522C43.4617 80.7446 42.8544 91.5675 45.3796 101.621C51.3054 125.175 72.1853 144.56 93.4406 154.731C114.754 164.932 140.792 165.517 157.243 146.392C173.879 127.055 167.852 99.4038 154.702 80.0242C141.336 60.3377 117.628 44.2165 92.9283 48.52C79.3067 50.9039 68.1982 59.9687 60.009 70.6964C51.6234 81.6732 45.2738 95.1461 45.1207 109.167C44.6555 152.933 111.982 174.213 137.344 139.009C152.089 118.562 146.916 90.0417 133.773 70.3287C121.719 52.2477 99.7986 36.829 77.149 41.9414C64.9315 44.6971 55.4549 53.6924 48.7499 63.8629C40.6253 76.194 35.8148 90.6566 37.1755 105.485C39.5163 131.081 59.5858 152.61 82.642 162.064C93.1487 166.374 105.072 168.133 116.179 165.189C127.798 162.104 135.932 153.333 141 142.761C152.788 118.116 144.972 87.6408 129.741 66.3558C116.556 47.9322 92.4614 33.0897 71.1503 47.9634C59.376 56.1688 51.2576 70.7837 47.3933 84.3382C43.9264 96.5366 44.8294 109.508 49.9049 121.113C59.4309 142.885 82.9936 157.58 106.438 158.574C130.212 159.587 152.395 142.897 154.054 118.366C155.685 94.282 136.78 72.0988 116.353 61.8976C106.57 57.0148 95.25 54.5924 84.4498 57.0122C72.6719 59.646 64.0838 68.5883 58.9086 79.1148C48.062 101.185 49.0194 128.778 62.9441 149.278C74.8269 166.77 95.8852 174.223 114.825 163.235C115.429 162.881 114.927 161.924 114.31 162.274C99.6387 170.783 83.2514 168.383 70.9229 156.97C58.0605 145.06 52.3472 126.699 52.5887 109.55C52.8243 93.2184 58.8541 74.1989 72.2238 63.8727C82.0362 56.2946 94.9909 55.8025 106.512 59.1581C130.229 66.074 152.132 89.3937 153.012 114.761C153.47 128.095 146.873 140.567 136.411 148.606C126.51 156.211 113.654 158.504 101.467 157.081C76.0949 154.121 52.3812 134.696 47.2652 109.266C44.1553 93.7871 49.1422 78.6532 57.0477 65.4503C64.1992 53.4955 75.3992 42.8879 90.078 42.7303C102.632 42.5867 113.94 50.3209 122.293 59.0391C132.194 69.3807 139.075 82.6465 142.784 96.4144C149.551 121.445 143.449 157.852 113.972 164.587C88.3278 170.457 60.6856 152.258 47.4188 131.447C39.6954 119.322 36.4057 104.836 38.7889 90.6313C41.301 75.647 50.0691 60.1282 61.9245 50.5917C82.979 33.6402 110.237 44.6889 126.436 62.6432C143.847 81.9579 151.856 112.062 138.219 135.636C126.419 156.022 99.7329 159.039 79.3005 151.736C68.7764 147.971 59.1711 141.128 52.9305 131.775C46.1555 121.615 44.8424 109.244 47.705 97.5336C51.4372 82.288 61.5745 67.345 74.0804 57.9652C85.1844 49.6239 99.1548 47.0637 112.568 50.241C138.148 56.2846 159.119 80.463 164.97 105.551C167.887 118.032 166.338 131.255 159.166 142.035C151.924 152.916 139.99 159.61 127.07 160.743C101.354 162.993 75.6351 146.156 60.0123 127.007C52.2893 117.54 46.1874 106 45.087 93.6801C44.0083 81.5544 49.1615 70.5246 58.2206 62.5975C69.2876 52.9161 84.0341 47.262 98.5007 51.4831C113.303 55.7924 125.139 67.9012 133.381 80.4385C151.28 107.673 156.297 150.576 128.65 173.651C105.745 192.767 75.513 172.039 63.0896 151.013C55.2879 137.818 52.2562 122.08 54.9643 106.981C58.0096 89.9702 68.9285 74.0425 82.4524 63.5617C93.3426 55.1288 107.033 51.987 120.279 56.1605C132.963 60.1504 143.22 69.9823 150.596 80.7269C166.365 103.692 171.722 136.791 155.74 161.011C147.947 172.825 136.74 178.182 122.676 177.331C108.123 176.453 94.0376 169.865 82.1617 161.744C70.211 153.56 59.3877 142.496 53.5468 129.075C47.2534 114.578 51.388 99.7767 58.3837 86.2982C64.5803 74.3496 74.5159 64.4597 87.3568 60.0002C98.5153 56.1319 110.757 57.0616 121.716 61.1195C146.882 70.4339 162.855 95.7827 162.849 122.211C162.843 135.35 159.228 149.101 150.214 158.961C142.786 167.087 132.163 171.225 121.345 172.109C97.8989 174.001 73.8044 161.682 59.3058 143.652C51.2925 133.681 46.4353 121.445 45.6758 108.664C44.7666 93.4085 50.1351 78.2559 58.0089 65.379C64.5444 54.6605 74.1529 45.5843 86.5461 42.4255C97.1958 39.7051 108.408 42.1751 118.048 47.0416C139.261 57.7494 154.774 80.1401 159.12 103.282C163.605 127.205 152.862 157.75 126.996 164.089C102.606 170.071 77.4157 151.621 66.3038 131.141C60.0346 119.577 57.9592 106.089 61.2431 93.2987C65.1299 78.2074 76.7881 64.6245 90.1373 56.9364C101.418 50.4474 114.45 50.5426 125.506 57.3816C136.257 64.034 143.573 75.5524 147.752 87.2348C151.989 99.0821 153.086 112.435 149.189 124.503C144.905 137.756 133.925 146.443 120.678 149.76C103.42 154.089 85.0883 149.113 70.4737 139.532C53.686 128.527 43.6798 110.999 42.1543 91.087C40.6814 71.7546 47.464 47.7684 64.9221 37.1505C75.9258 30.4701 89.8989 32.8638 100.765 38.4239C124.13 50.3605 141.212 76.8775 146.307 102.153C148.648 113.748 148.122 126.515 141.478 136.664C134.493 147.313 120.12 153.242 107.637 152.709C94.9671 152.173 83.7913 143.646 75.3995 134.836C65.4175 124.362 57.8785 111.407 52.8919 97.8698C48.45 85.8127 45.7759 72.13 48.7692 59.4123C51.6928 46.9689 61.2303 39.1463 73.567 36.8832C102.065 31.6498 123.804 56.0875 133.637 79.9925C142.198 100.787 146.607 134.486 124.726 149.026C113.636 156.392 98.8026 155.375 86.6791 151.528C72.034 146.877 58.0586 137.932 48.7608 125.599C36.4553 109.28 37.3125 87.3518 48.5226 70.6398C58.9098 55.1819 78.6285 45.9199 97.0229 50.069C121.339 55.542 132.516 81.7873 134.026 104.366C135.395 124.794 129.227 152.645 107.343 160.15C95.1204 164.34 81.3225 159.906 70.8465 153.323C58.2822 145.436 49.4546 132.614 45.1362 118.554C36.6631 90.9136 47.9786 59.1863 77.5523 51.245C91.4052 47.5216 107.053 48.9059 119.547 56.1401C129.343 61.8191 136.372 71.1428 140.552 81.5368C148.673 101.742 146.462 127.61 133.141 145.132C117.514 165.701 87.2132 164.388 68.0705 149.193C45.3253 131.135 48.1863 92.8873 64.6609 71.8236C73.3989 60.6582 87.7526 54.1737 101.933 56.9925C117.898 60.1643 132.897 73.0433 142.723 85.4027C154.769 100.542 158.803 122.717 144.99 138.318C134.417 150.27 115.486 152.898 101.172 146.978C76.6493 136.825 65.4163 105.489 65.6864 80.8458C65.8171 69.2476 68.7519 56.7673 77.0878 48.2586C86.5699 38.5803 100.736 38.6969 112.946 42.1269C125.475 45.6538 136.315 53.0718 143.191 64.2285C149.394 74.2821 151.601 86.3603 151.136 98.045C150.235 120.471 138.478 145.192 117.09 154.605C93.115 165.156 61.9203 149.29 54.5638 124.699C47.095 99.7246 61.1271 71.3035 79.2281 54.5312C88.0923 46.3168 99.4174 39.9485 111.703 39.3612C127.122 38.6223 139.222 48.5292 146.968 61.064C158.284 79.3644 161.553 103.402 153.838 123.643C146.965 141.682 131.089 154.121 111.573 153.807C96.1065 153.551 80.7183 146.125 69.287 136.004C53.5691 122.089 49.0415 98.3948 50.7316 78.3695C52.4547 57.9247 62.5641 32.2616 83.9357 25.6077C99.0254 20.9033 115.189 28.2961 127.229 37.0709C155.138 57.4042 177.636 99.7634 159.389 133.015C154.92 141.165 148.362 148.145 139.764 151.85C132.029 155.184 123.216 155.253 115.037 153.849C99.2827 151.131 83.961 142.288 73.2244 130.539C60.8205 116.983 58.1075 95.7181 59.1119 78.0892C60.2424 58.4044 69.1424 35.8919 90.3328 31.2099C107.354 27.4397 126.446 35.0484 139.725 45.4064C154.47 56.9065 160.472 75.4229 160.372 93.6079C160.252 113.813 151.948 134.936 135.031 146.778C119.04 157.961 99.4507 157.356 82.6085 148.349C65.6877 139.29 52.9567 122.427 48.823 103.725C45.3532 88.0156 45.0723 70.6417 52.975 56.1628C65.8326 32.594 96.147 27.9241 120.145 33.5156C146.879 39.7345 169.736 60.2155 169.943 89.1779C170.149 117.254 143.812 136.27 118.647 141.265C106.065 143.763 92.3966 142.978 80.7851 137.219C68.5764 131.172 61.2134 119.585 58.7975 106.424C56.2432 92.5225 56.5872 75.7002 65.204 63.8269C71.8126 54.7279 82.9749 51.2902 93.8146 51.6207C117.731 52.3417 142.196 69.1084 152.127 90.6943C162.85 114.01 155.31 143.377 134.241 157.895C115.581 170.753 89.6297 172.274 69.0701 163.308C58.5273 158.719 49.6088 150.849 44.127 140.719C37.477 128.463 36.9547 113.969 39.3827 100.503C41.912 86.4363 48.6723 73.5577 60.9145 65.6686C71.6715 58.7389 84.952 56.9496 97.4925 58.0906C122.912 60.4078 150.491 76.0238 159.627 100.899C169.076 126.648 159.105 156.863 135.392 170.579C114.729 182.562 86.7654 182.749 65.896 171.394C55.7912 165.89 47.6897 157.141 43.9328 146.19C39.4689 133.187 41.5774 117.718 47.413 105.499C59.38 80.4389 89.428 71.8627 115.136 76.2406C127.606 78.367 139.75 83.6966 149.025 92.3853C158.754 101.521 163.247 113.808 162.994 127.007C162.748 139.872 158.7 152.793 149.078 161.691C140.848 169.319 129.52 172.505 118.502 172.631C94.8735 172.91 70.7127 159.215 60.1346 137.903C48.1158 113.725 56.9163 80.9946 80.9347 67.9074C102.779 56.0141 131.542 61.5186 151.165 75.2614C161.056 82.1773 169.062 91.9983 172.505 103.672C176.321 116.6 173.263 130.506 166.848 142.067C154.128 165.006 126.982 171.535 102.796 166.075C78.284 160.542 55.4304 142.975 47.9766 118.395C39.9008 91.7467 52.6801 57.4023 77.6164 44.2978C100.642 32.185 129.285 40.4319 147.801 56.9404C157.801 65.8487 165.087 77.5996 168.554 90.529C172.5 105.241 170.635 121.147 166 135.474C162.292 146.915 155.634 157.596 145.304 164.092C136.516 169.618 125.921 171.093 115.742 169.956C92.0978 167.317 70.704 151.4 56.5806 132.974C40.2229 111.643 33.1309 83.8301 40.8703 57.7042C44.0974 46.8292 50.545 36.7552 61.0127 31.7111C70.3013 27.2361 81.1745 27.8988 90.8386 30.692C113.543 37.2743 133.025 55.914 143.028 76.998C154.675 101.56 150.065 130.03 130.635 149.326C112.689 167.139 86.9338 164.424 66.7274 152.209C46.4558 139.988 29.6183 118.646 25.0915 95.1266C22.947 83.9936 24.3451 72.3766 30.0502 62.4939C36.8221 50.7732 49.0171 43.0844 61.4925 38.6351C87.595 29.3471 118.026 35.6792 138.379 54.3681C163.235 77.1997 164.931 112.371 154.186 142.567C149.872 154.683 142.696 166.053 131.167 172.387C121.551 177.675 110.164 178.132 99.6288 175.867C76.0158 170.822 55.1867 153.13 42.6021 133.035C29.6352 112.342 25.9091 86.1795 40.8115 65.4315C55.5534 44.9033 84.1828 44.5553 106.3 50.9059C129.982 57.7172 154.057 74.6207 160.143 99.7265C163.497 113.602 159.77 127.681 153.053 139.928C147.346 150.348 138.594 159.213 126.888 162.406C104.542 168.51 81.6235 152.708 67.0131 137.396C51.2345 120.845 37.802 97.1244 40.0553 73.5113C41.1286 62.3463 46.7745 52.5261 55.5576 45.6429C66.1188 37.3653 78.2466 35.4819 90.9093 39.7203C117.588 48.6474 139.917 77.8277 142.373 105.659C143.71 120.83 137.574 134.797 125.997 144.565C113.984 154.712 98.4347 157.653 83.362 153.704C56.4628 146.657 32.1596 118.543 35.5882 89.8094C37.6072 72.8637 50.7147 59.8137 65.3183 52.3714C82.178 43.7735 103.169 41.7427 121.733 43.9162C131.22 45.0317 140.729 47.7642 148.767 53.0448C156.312 58.0016 160.739 65.4099 163.069 73.9815C167.938 91.9399 164.073 112.233 157.348 129.162C150.485 146.412 138.477 162.48 120.213 168.357C103.375 173.78 84.8866 168.878 70.5216 159.359C55.3409 149.297 44.3334 133.036 41.6107 114.95C38.9715 97.3847 42.2298 78.962 48.6857 62.5683C54.4689 47.8635 63.9255 32.9962 77.9437 24.9604C91.2817 17.3092 105.009 20.9574 116.999 29.2337C138.397 43.9841 148.406 70.1439 149.638 95.3229C150.79 118.773 144.644 144.777 128.334 162.374C121.057 170.224 111.534 175.648 100.911 177.262C87.8835 179.236 74.7905 174.867 63.5113 168.631C39.1124 155.146 30.0823 123.672 30.125 97.5641C30.1707 71.2688 40.3917 41.116 66.3144 30.0285C101.6 14.9312 138.226 43.3955 150.954 75.2916C159.128 95.7678 157.686 119.184 150.049 139.609C143.46 157.238 129.537 174 109.257 173.817C54.1017 173.284 27.1261 99.045 59.6091 58.2797C78.5099 34.5683 115.859 32.11 141.505 45.4222C157.895 53.9305 166.294 70.247 167.996 88.1588C169.909 108.121 165.798 131.4 154.151 148.046C145.577 160.309 131.969 166.724 117.112 165.874C105.605 165.221 94.5567 160.263 84.5994 154.804C73.008 148.447 61.3214 139.968 54.8067 128.195C46.6755 113.517 53.0258 92.4203 71.3168 90.6186C71.9938 90.5552 72.041 89.4688 71.348 89.5408L71.3357 89.537Z" fill="#55324C"/>
<path d="M70.7969 123.876C77.6101 139.094 90.7225 151.375 107.211 155.081C124.313 158.932 141.946 150.663 152.073 136.817C163.558 121.101 161.648 99.6232 154.633 82.545C147.989 66.371 134.947 51.9506 119.131 44.3408C94.8641 32.6811 68.377 44.5239 55.9463 67.2153C41.4345 93.7192 49.8269 126.678 70.8888 147.058C88.9524 164.53 121.227 176.696 144.641 162.768C157.2 155.297 162.564 141.002 164.058 127.119C166.142 107.696 157.119 88.5195 144.257 74.4355C123.664 51.8884 85.9 44.1942 60.638 63.6028C40.6964 78.9182 35.7533 107.113 45.3919 129.576C56.0773 154.478 87.5941 175.528 114.965 166.705C140.419 158.496 152.027 128.548 151.896 103.944C151.731 73.2496 131.929 45.3853 100.453 41.2602C71.8202 37.4996 42.8694 56.368 42.0392 86.6271C41.1852 117.496 64.5615 142.511 94.0495 147.792C117.313 151.953 146.493 143.449 153.323 118.243C160.582 91.4881 141.379 67.9395 118.893 56.6044C99.1433 46.6487 69.9973 41.3905 51.287 56.4078C41.8684 63.971 38.6664 76.0482 38.9552 87.6796C39.4004 105.264 49.5365 121.61 61.5898 133.798C73.3338 145.678 90.66 155.879 107.98 152.898C123.815 150.164 135.429 136.46 142.208 122.809C149.019 109.1 152.507 92.0891 148.232 77.0892C143.375 60.0205 130.483 44.6653 117.073 33.5428C104.047 22.751 87.477 15.3694 70.699 21.4819C56.9226 26.5036 49.9114 40.2995 47.4841 53.9403C41.775 86.037 58.5227 117.956 82.8705 138.124C95.1654 148.318 111.055 156.084 127.148 150.771C143.881 145.249 153.818 128.044 155.832 111.378C157.949 93.8448 151.619 75.0815 139.056 62.6717C130.808 54.5358 120.784 47.0831 109.365 44.3221C92.2588 40.174 78.1865 50.9585 70.8516 65.6899C55.5433 96.4628 64.1866 148.8 106.393 148.564C120.537 148.487 132.226 142.47 140.537 130.987C149.681 118.348 153.351 101.446 151.265 86.0884C146.639 52.0827 105.117 39.7334 77.3374 54.2047C53.5116 66.612 46.8054 97.9234 55.7553 121.642C62.9347 140.702 79.9401 157.236 100.026 161.871C108.697 163.867 117.892 163.068 125.742 158.734C135.065 153.572 140.739 143.921 144.012 134.094C148.944 119.319 149.975 102.973 142.089 89.0811C134.396 75.5289 119.378 66.3487 104.121 64.1164C87.3336 61.6623 68.135 66.9476 56.8213 80.0577C46.4729 92.0642 46.3487 109.047 51.5217 123.299C57.1345 138.758 69.5769 153.117 85.0563 159.135C98.8554 164.496 114.683 161.21 126.409 152.588C138.861 143.433 147.132 129.509 148.951 114.153C150.982 96.9024 142.912 79.7193 132.292 66.6096C112.257 41.9095 71.0344 25.8252 45.0115 51.3792C27.7011 68.3776 33.7619 96.2274 44.428 114.989C55.8327 135.034 77.3501 153.512 101.797 150.797C115.548 149.271 127.193 140.207 135.829 129.91C144.064 120.096 148.899 107.856 148.812 94.9832C148.667 71.6639 132.206 49.9659 111.55 40.2993C102.018 35.8281 91.149 34.133 80.8503 36.7584C69.2278 39.7211 60.4188 48.4623 54.5788 58.613C45.7571 73.9545 47.2498 93.266 52.0307 109.654C56.9775 126.602 67.0068 143.788 82.4701 153.05C94.1361 160.047 108.597 160.83 120.294 153.634C131.63 146.652 138.594 133.943 142.545 121.609C146.69 108.636 147.77 94.0366 144.045 80.8543C139.059 63.2365 126.956 46.9125 108.883 41.4378C90.8095 35.9631 70.33 44.9007 61.4815 61.0395C52.455 77.5001 56.1907 98.7126 62.3747 115.432C69.0902 133.587 85.3132 164.314 109.662 156.119C127.298 150.186 135.707 128.276 135.291 111.17C134.678 85.8964 114.747 69.228 91.4402 63.7922C81.7992 61.5429 71.3127 61.6416 62.4966 66.5954C54.9732 70.8266 50.0804 78.3379 47.2856 86.3237C40.5662 105.537 44.5286 128.483 53.2208 146.404C61.5985 163.681 77.4265 178.784 97.8813 176.752C111.085 175.436 122.664 168.098 128.994 156.418C136.737 142.158 136.58 124.151 132.625 108.805C128.67 93.4996 119.704 80.3808 105.236 73.4613C91.2132 66.757 73.8746 66.6996 59.9859 73.6873C24.9537 91.3176 42.0586 136.459 62.336 158.454C73.0152 170.038 87.3939 177.696 103.436 174.501C117.618 171.683 127.723 159.818 133.199 147.1C144.095 121.81 136.954 84.2771 109.486 72.6814C87.0636 63.2181 60.525 77.3138 51.1093 98.5157C38.4218 127.062 60.8986 161.294 86.3317 174.112C98.4074 180.2 112.126 179.711 121.468 169.212C134.085 155.033 135.058 133.032 130.523 115.565C125.481 96.1846 112.925 78.6092 96.8437 66.825C87.1788 59.7362 74.7621 53.2232 62.4367 53.5435C43.3863 54.0413 36.1328 73.7774 35.4016 89.9723C34.4073 111.645 42.3188 134.847 57.0937 150.812C72.2709 167.222 98.5461 174.336 118.631 162.446C138.832 150.485 140.687 122.912 136.743 102.254C132.61 80.6257 120.325 55.6423 98.5659 47.2255C76.6048 38.7208 52.5666 54.6208 47.5591 76.5138C41.9975 100.856 54.243 128.096 70.157 146.018C85.2907 163.059 109.021 173.831 129.447 158.957C150.613 143.543 156.664 116.476 147.618 92.6753C139.559 71.4685 121.331 52.4568 99.747 44.9658C90.7728 41.8447 80.8112 41.2299 71.9332 44.9702C61.8257 49.2241 55.5833 58.9307 52.0055 68.8806C43.4008 92.8115 50.6897 118.778 69.9435 135.201C84.2902 147.44 107.352 154.882 123.938 142.577C133.082 135.79 136.942 124.287 138.3 113.423C140.057 99.3785 137.592 84.8731 130.783 72.4344C119.89 52.517 96.9049 38.8833 74.0076 41.3569C63.9873 42.4425 54.7665 47.3139 48.578 55.2919C40.5683 65.604 39.2711 79.5469 40.4433 92.117C42.9337 118.858 60.9168 142.977 84.6897 154.984C94.5608 159.974 106.027 162.669 116.98 160.188C128.607 157.562 136.868 148.547 141.666 138.027C154.656 109.546 145.81 71.6575 127.676 47.3722C119.118 35.9206 106.531 27.2219 91.7523 28.0204C77.3425 28.7964 62.5726 38.6045 54.8194 50.5515C40.1519 73.1827 53.43 102.199 69.6274 119.937C85.4691 137.3 112.758 152.587 135.767 139.731C160.277 126.041 157.988 90.7023 149.898 68.0902C145.471 55.7157 138.153 43.6731 127.296 35.9548C116.891 28.5613 104.239 27.9639 92.7208 33.0655C61.6943 46.8218 58.5349 84.8587 72.5758 112.065C79.682 125.829 91.4777 137.228 106.102 142.611C118.604 147.203 134.543 147.185 145.274 138.436C154.458 130.936 156.695 118.19 155.833 106.989C154.799 93.6961 149.336 80.7122 141.434 70.0634C133.693 59.6378 122.598 51.418 109.545 49.5312C96.0068 47.5644 80.8824 51.4529 71.9376 62.1933C54.5516 83.0749 65.0737 117.068 82.2059 134.513C91.8488 144.333 106.364 151.361 120.298 148.213C130.932 145.81 138.808 136.383 139.097 125.504C139.384 114.718 131.53 106.259 122.563 101.475C121.952 101.143 121.364 102.065 121.991 102.389C134.567 109.085 142.758 123.123 134.811 136.595C126.363 150.923 107.515 149.602 94.7043 142.661C70.0196 129.278 54.8859 91.0555 70.574 65.9414C79.023 52.4065 96.8481 48.1548 111.776 50.9855C126.197 53.7163 137.558 64.9564 144.875 77.0925C157.934 98.7667 162.349 138.83 129.388 144.04C92.6068 149.852 65.0005 111.328 65.3699 78.0699C65.5644 60.5447 74.2363 44.6343 89.5521 35.9043C102.711 28.4003 117.347 29.3168 129.193 38.7309C140.89 48.0191 147.814 62.828 151.517 76.97C155.197 91.0516 155.852 106.794 150.616 120.577C145.741 133.436 134.123 142.145 120.452 143.32C107.137 144.468 94.0608 138.493 83.5039 130.893C62.2205 115.586 42.5662 85.5519 52.1058 58.535C57.4571 43.3504 73.5863 31.8466 89.1364 29.389C106.382 26.653 120.671 38.5924 129.674 52.0312C139.529 66.7348 144.929 84.7598 146.312 102.307C147.536 117.805 144.598 134.728 134.952 147.296C117.275 170.291 85.6281 157.912 67.8419 142.095C46.8223 123.392 33.42 90.6204 45.1703 63.3067C55.316 39.695 84.3104 38.1421 104.636 48.5005C130.881 61.8734 142.604 92.7001 135.951 120.779C133.309 131.939 126.559 141.948 115.486 145.976C105.64 149.544 94.6221 147.63 85.2603 143.573C61.934 133.46 47.1054 108.632 49.7803 83.3612C51.1421 70.5789 56.567 56.4366 67.3935 48.7898C76.0836 42.6569 87.1289 42.4859 97.0367 45.2723C120.375 51.8452 139.855 73.2363 147.609 95.7195C151.714 107.648 152.178 120.607 147.952 132.562C143.451 145.293 133.115 157.572 120.557 162.869C95.1926 173.575 70.8834 149.07 59.3972 129.161C47.2152 108.048 39.8179 75.6588 59.859 56.7358C68.937 48.1701 82.5004 44.1174 94.6666 47.1585C106.182 50.0427 115.294 58.87 121.836 68.3819C135.678 88.5348 142.2 117.652 134.011 141.185C130.062 152.539 121.651 161.428 110.138 165.136C98.1309 169.015 84.3795 167.44 73.1984 161.812C52.1878 151.233 40.5663 127.161 37.3025 104.79C34.8168 87.7817 36.8203 61.0056 56.9424 55.4631C68.3808 52.3104 80.6826 58.0503 90.2342 63.8295C109.366 75.3832 123.544 94.3361 129.508 115.861C134.684 134.49 132.677 161.896 114.9 173.612C100.595 183.037 82.7587 172.614 71.9742 162.662C59.2173 150.892 48.89 134.247 48.6027 116.495C48.3774 102.749 55.1768 89.9624 65.7093 81.3808C75.7769 73.182 89.404 69.2291 102.24 71.6543C117.434 74.5385 127.806 86.7813 133.087 100.676C139.105 116.526 138.305 133.922 131.121 149.263C124.052 164.357 110.134 175.255 92.9566 174.132C73.8702 172.888 59.3333 155.827 50.5742 140.341C41.6021 124.495 36.0003 103.993 46.3017 87.4888C56.1979 71.6137 77.0701 67.1843 94.3104 70.8899C112.393 74.7835 124.727 87.9961 130.466 105.118C136.039 121.772 136.111 142.009 127.217 157.544C120.2 169.808 105.86 176.511 91.9639 175.859C69.9853 174.812 55.8671 153.488 49.6754 134.579C43.5899 115.983 41.9506 91.2178 54.6867 74.8741C70.2331 54.9252 102.72 64.1755 118.93 78.2401C136.364 93.3602 138.409 119.443 127.348 138.898C122.86 146.801 115.723 153.834 106.632 155.885C96.0542 158.279 86.4869 151.931 79.795 144.333C67.8843 130.832 60.4999 111.562 58.0344 93.9556C56.565 83.4298 57.3354 72.3341 61.9485 62.644C66.8995 52.2375 76.7575 45.5725 87.5916 42.465C110.098 36.0072 130.217 51.6586 139.42 71.1716C146.344 85.8464 146.591 102.404 142.565 117.91C138.951 131.836 131.264 146.044 118.531 153.516C103.665 162.222 85.79 156.27 73.9958 145.221C59.1269 131.294 50.9734 109.777 49.5712 89.7677C48.3772 72.8823 53.8827 56.2141 67.0575 45.1578C87.0004 28.4199 114.829 38.8229 130.868 55.668C139.461 64.7006 145.466 76.2512 147.307 88.6077C149.375 102.429 145.033 116.054 136.768 127.121C127.899 138.985 114.756 148.829 99.6202 149.963C87.0237 150.912 74.9525 145.43 65.2361 137.802C45.8658 122.606 30.7768 94.3835 36.4411 69.3472C39.3573 56.4854 48.9229 47.3291 61.005 42.7606C80.4232 35.421 101.225 41.6819 117.307 53.6409C133.149 65.4196 145.912 84.1718 148.011 104.096C149.824 121.331 141.73 138.436 128.73 149.492C115.352 160.863 96.8115 164.065 80.9373 156.116C64.3504 147.816 52.2574 129.334 49.6394 111.212C46.6892 90.774 58.9149 74.3428 77.8376 67.7524C95.5288 61.5944 114.927 64.8664 129.665 76.3911C136.905 82.0473 142.342 89.8422 145.132 98.5799C147.938 107.35 147.014 116.56 145.227 125.428C142.838 137.349 137.588 149.584 127.203 156.613C109.187 168.807 85.7186 158.101 71.9761 144.488C54.4561 127.127 48.0282 101.287 57.4575 78.2235C64.5384 60.9184 80.5079 50.6952 98.9025 49.2604C116.652 47.8719 136.352 55.7319 145.472 71.6222C154.08 86.6325 151.626 106.829 144.626 121.917C141.029 129.673 135.597 136.659 128.497 141.488C122.342 145.677 115.12 147.141 107.801 147.461C86.8644 148.381 71.8379 134.486 66.8256 114.874C62.2066 96.8436 65.0716 75.5097 75.4677 59.9337C80.1549 52.9239 86.8947 47.2472 95.1862 45.2219C105.056 42.8156 115.13 46.4712 123.494 51.6087C138.637 60.9073 149.908 74.7914 153.798 92.3055C158.307 112.558 151.609 135.335 133.443 146.651C116.251 157.363 96.6221 148.383 82.7429 136.595C69.3881 125.248 57.6519 109.531 51.7998 92.9127C46.5254 77.9322 45.8328 60.3664 50.8075 45.2288C56.4161 28.1757 72.3315 17.4663 90.3958 20.8442C109.947 24.4981 126.633 41.687 137.351 57.4437C142.328 64.7636 146.591 72.9811 148.243 81.7503C149.86 90.2806 148.813 99.2788 146.698 107.632C142.446 124.505 131.999 141.757 115.773 149.325C96.8396 158.167 75.846 146.291 62.3989 133.077C48.9432 119.846 39.0815 101.664 40.1309 82.4248C40.8321 69.5632 47.4264 58.4733 59.0955 52.7864C82.3943 41.4544 113.937 51.6939 132.994 66.8625C144.114 75.7074 151.185 87.4602 153.139 101.569C155.096 115.625 150.081 129.167 138.746 137.828C115.953 155.246 79.8543 148.834 60.3409 129.635C48.2389 117.74 41.8778 99.612 43.355 82.7706C44.7661 66.7682 55.3302 53.7398 69.5836 47.0102C83.8211 40.2892 100.832 40.4085 115.296 46.2797C131.646 52.9237 143.123 67.5011 147.989 84.1835C155.764 110.807 147.963 146.042 123.398 161.555C95.8254 178.975 59.5353 156.666 47.0283 130.555C35.2763 106.029 43.1157 74.698 66.925 60.6615C80.4533 52.6921 96.8087 52.3175 111.735 55.9528C132.733 61.0785 149.099 77.5935 157.787 96.9501C165.569 114.288 165.502 136.442 154.287 152.374C145.832 164.377 131.107 168.454 117.076 167.358C85.0521 164.866 56.5697 139.204 50.6699 107.765C45.4847 80.1271 61.0607 48.1601 89.8578 41.6749C105.258 38.2055 120.507 44.4085 132.254 54.1952C148.448 67.6913 158.978 88.0089 159.235 109.228C159.501 131.483 143.676 151.2 121.442 154.586C102.247 157.51 84.1819 145.139 74.7239 129.213C73.6154 127.333 72.6547 125.365 71.7667 123.377C71.4768 122.739 70.5279 123.257 70.8055 123.892L70.7969 123.876Z" fill="#55324C"/>
</svg>
