<svg width="62" height="62" viewBox="0 0 62 62" fill="none" xmlns="http://www.w3.org/2000/svg">
<circle cx="31" cy="31" r="29.4309" stroke="black" stroke-width="3.13812"/>
<path d="M31 38C32.8565 38 34.637 37.2625 35.9498 35.9498C37.2625 34.637 38 32.8565 38 31C38 29.1435 37.2625 27.363 35.9498 26.0503C34.637 24.7375 32.8565 24 31 24C29.1435 24 27.363 24.7375 26.0503 26.0503C24.7375 27.363 24 29.1435 24 31C24 32.8565 24.7375 34.637 26.0503 35.9498C27.363 37.2625 29.1435 38 31 38Z" stroke="black" stroke-width="2.64779" stroke-linecap="round" stroke-linejoin="round"/>
<path d="M15.25 38V24C15.25 21.6794 16.1719 19.4538 17.8128 17.8128C19.4538 16.1719 21.6794 15.25 24 15.25H38C40.3206 15.25 42.5462 16.1719 44.1872 17.8128C45.8281 19.4538 46.75 21.6794 46.75 24V38C46.75 40.3206 45.8281 42.5462 44.1872 44.1872C42.5462 45.8281 40.3206 46.75 38 46.75H24C21.6794 46.75 19.4538 45.8281 17.8128 44.1872C16.1719 42.5462 15.25 40.3206 15.25 38Z" stroke="black" stroke-width="2.64779"/>
<path d="M40.625 21.3918L40.6416 21.3735" stroke="black" stroke-width="2.64779" stroke-linecap="round" stroke-linejoin="round"/>
</svg>
