<svg width="62" height="62" viewBox="0 0 62 62" fill="none" xmlns="http://www.w3.org/2000/svg">
<circle cx="31" cy="31" r="29.4309" stroke="black" stroke-width="3.13812"/>
<path d="M43.25 28.48C40.841 28.4849 38.4915 27.7325 36.5335 26.3293V36.1083C36.5329 37.9196 35.9792 39.6876 34.9464 41.1757C33.9137 42.6638 32.4513 43.8011 30.7546 44.4355C29.058 45.0699 27.2081 45.171 25.4524 44.7255C23.6967 44.2799 22.1189 43.3089 20.93 41.9423C19.7412 40.5757 18.998 38.8786 18.7998 37.0781C18.6017 35.2776 18.958 33.4596 19.8212 31.8671C20.6844 30.2747 22.0133 28.9837 23.6301 28.167C25.2469 27.3503 27.0745 27.0468 28.8685 27.297V32.2145C28.0488 31.9563 27.1686 31.9637 26.3534 32.2356C25.5383 32.5075 24.8298 33.0299 24.3292 33.7284C23.8287 34.4268 23.5615 35.2656 23.566 36.1249C23.5705 36.9842 23.8463 37.8201 24.3542 38.5133C24.862 39.2065 25.5759 39.7216 26.3938 39.9849C27.2118 40.2483 28.0921 40.2465 28.9089 39.9798C29.7258 39.7131 30.4376 39.1952 30.9426 38.4999C31.4476 37.8046 31.72 36.9676 31.721 36.1083V17H36.5335C36.5317 17.4078 36.5667 17.8137 36.6385 18.2145C36.8057 19.1074 37.1533 19.9569 37.66 20.7109C38.1668 21.465 38.8219 22.1078 39.5855 22.6C40.6722 23.3175 41.948 23.7008 43.25 23.699V28.48Z" fill="black"/>
</svg>
